<?xml version="1.0" encoding="iso-8859-1"?>
<!-- Generator: Adobe Illustrator 19.0.0, SVG Export Plug-In . SVG Version: 6.00 Build 0)  -->
<svg version="1.1" id="Layer_1" xmlns="http://www.w3.org/2000/svg" xmlns:xlink="http://www.w3.org/1999/xlink" x="0px" y="0px"
	 viewBox="0 0 511.936 511.936" style="enable-background:new 0 0 511.936 511.936;" xml:space="preserve">
<circle style="fill:#FF9690;" cx="221.152" cy="271.424" r="160"/>
<circle style="fill:#FD3B6D;" cx="221.152" cy="271.424" r="116.608"/>
<path style="fill:#FC7576;" d="M61.152,111.424h320C381.152-22.72,61.152-22.72,61.152,111.424z"/>
<path style="fill:#FFD37D;" d="M334.304,501.184c-64.32,0-116.608-52.288-116.608-116.608s52.288-116.672,116.608-116.672
	s116.608,52.288,116.608,116.608S398.624,501.184,334.304,501.184z"/>
<g>
	<path style="fill:#000030;" d="M158.432,277.824c-5.824,0-10.496,4.672-10.496,10.496s4.672,10.496,10.496,10.496
		s10.496-4.672,10.496-10.496C169.056,282.624,164.32,277.824,158.432,277.824z"/>
	<circle style="fill:#000030;" cx="195.04" cy="315.776" r="10.496"/>
	<path style="fill:#000030;" d="M392.032,270.912c-0.192-63.808-35.52-119.488-87.616-148.672h76.8
		c6.016,0,10.816-4.928,10.816-10.816c0-35.2-19.2-64.576-55.616-84.928C305.824,9.408,264.928,0,221.152,0
		s-84.736,9.408-115.328,26.496c-36.288,20.288-55.616,49.728-55.616,84.928c0,6.016,4.928,10.816,10.816,10.816h76.8
		C85.6,151.552,50.208,207.36,50.208,271.424c0,94.016,76.416,170.624,170.432,170.816c21.12,41.408,64.128,69.696,113.6,69.696
		c70.272,0,127.488-57.216,127.488-127.488C461.728,334.976,433.312,292.032,392.032,270.912z M72.864,100.608
		c4.48-27.584,25.6-44.992,43.584-55.104c27.008-15.104,65.216-23.808,104.704-23.808s77.696,8.704,104.704,23.808
		c17.984,10.112,39.104,27.52,43.584,55.104H72.864z M72.032,271.424c0-82.176,66.88-149.184,149.184-149.184
		c79.104,0,144.128,62.016,148.928,139.904c-7.104-2.112-14.528-3.584-22.08-4.416c-3.072-29.504-16.384-56.832-37.888-77.696
		C286.048,156.8,254.56,144,221.152,144c-70.272,0-127.488,57.216-127.488,127.488c0,33.28,12.8,64.896,36.096,88.832
		c20.928,21.504,48.192,34.816,77.696,37.888c0.832,7.616,2.304,14.976,4.416,22.08C133.92,415.488,72.032,350.592,72.032,271.424z
		 M207.136,376.192c-51.52-6.976-91.712-51.904-91.712-104.768c0-58.304,47.424-105.792,105.792-105.792
		c52.992,0,97.792,40.192,104.768,91.712C262.304,261.504,211.232,312.576,207.136,376.192z M334.304,490.304
		c-43.328,0-80.512-26.112-96.896-63.424c0-0.128-0.128-0.192-0.128-0.32c-5.632-12.928-8.704-27.072-8.704-41.984
		c0-58.304,47.424-105.792,105.792-105.792c14.976,0,29.184,3.072,42.112,8.832l0,0c37.376,16.32,63.616,53.632,63.616,97.024
		C440.032,442.88,392.608,490.304,334.304,490.304z"/>
</g>
<g>
</g>
<g>
</g>
<g>
</g>
<g>
</g>
<g>
</g>
<g>
</g>
<g>
</g>
<g>
</g>
<g>
</g>
<g>
</g>
<g>
</g>
<g>
</g>
<g>
</g>
<g>
</g>
<g>
</g>
</svg>
