<?xml version="1.0" encoding="iso-8859-1"?>
<!-- Generator: Adobe Illustrator 19.0.0, SVG Export Plug-In . SVG Version: 6.00 Build 0)  -->
<svg version="1.1" id="Layer_1" xmlns="http://www.w3.org/2000/svg" xmlns:xlink="http://www.w3.org/1999/xlink" x="0px" y="0px"
	 viewBox="0 0 295.996 295.996" style="enable-background:new 0 0 295.996 295.996;" xml:space="preserve">
<g>
	<path style="fill:#FFCE00;" d="M270.996,123.998c0-11.334-1.363-22.348-3.907-32.899c-7.269-15.153-17.35-28.709-29.558-39.997
		c-22.391-13.376-48.766-20.666-76.771-19.645C83.492,34.273,23.139,99.196,25.955,176.463c0.412,11.304,2.17,22.239,5.087,32.673
		c6.303,12.01,14.397,22.938,23.934,32.42c21.892,14.189,47.99,22.44,76.022,22.44C208.316,263.996,270.996,201.316,270.996,123.998
		z M188.894,90.445l11.313,11.315l-17.94,17.938l17.941,17.94l-11.315,11.314l-29.254-29.255L188.894,90.445z M95.788,101.76
		l11.313-11.315l29.255,29.253l-29.254,29.255l-11.314-11.314l17.941-17.94L95.788,101.76z M65.715,164.997h164.564
		c0,45.443-36.839,82.283-82.281,82.283C102.554,247.28,65.715,210.441,65.715,164.997z"/>
	<path style="fill:#FFB100;" d="M267.089,91.099c2.544,10.552,3.907,21.565,3.907,32.899c0,77.318-62.68,139.998-139.998,139.998
		c-28.032,0-54.131-8.251-76.022-22.44c23.88,23.744,56.767,38.44,93.022,38.44c72.784,0,131.998-59.214,131.998-131.998
		C279.996,127.636,275.358,108.337,267.089,91.099z"/>
	<path style="fill:#FFE454;" d="M160.76,31.457c28.006-1.021,54.381,6.269,76.771,19.645C213.985,29.328,182.521,16,147.998,16
		C75.214,16,16,75.214,16,147.998c0,22.05,5.442,42.849,15.042,61.138c-2.917-10.434-4.675-21.369-5.087-32.673
		C23.139,99.196,83.492,34.273,160.76,31.457z"/>
	<path d="M147.998,0C66.392,0,0,66.392,0,147.998s66.392,147.998,147.998,147.998s147.998-66.392,147.998-147.998
		S229.605,0,147.998,0z M147.998,279.996c-36.256,0-69.143-14.696-93.022-38.44c-9.536-9.482-17.631-20.41-23.934-32.42
		C21.442,190.847,16,170.048,16,147.998C16,75.214,75.214,16,147.998,16c34.523,0,65.987,13.328,89.533,35.102
		c12.208,11.288,22.289,24.844,29.558,39.997c8.27,17.238,12.907,36.537,12.907,56.899
		C279.996,220.782,220.782,279.996,147.998,279.996z"/>
	<polygon points="107.102,148.953 136.355,119.698 107.101,90.445 95.788,101.76 113.729,119.698 95.787,137.639 	"/>
	<polygon points="200.207,137.639 182.266,119.698 200.206,101.76 188.894,90.445 159.639,119.698 188.893,148.953 	"/>
	<path style="fill:#FFFFFF;" d="M147.916,231.28c31.033,0,57.07-21.438,64.246-50.283h-0.165H83.667
		C90.843,209.843,116.881,231.28,147.916,231.28z"/>
	<path d="M230.279,164.997H65.715c0,45.443,36.839,82.283,82.283,82.283C193.441,247.28,230.279,210.441,230.279,164.997z
		 M211.997,180.997h0.165c-7.176,28.846-33.213,50.283-64.246,50.283c-31.035,0-57.073-21.438-64.249-50.283H211.997z"/>
</g>
<g>
</g>
<g>
</g>
<g>
</g>
<g>
</g>
<g>
</g>
<g>
</g>
<g>
</g>
<g>
</g>
<g>
</g>
<g>
</g>
<g>
</g>
<g>
</g>
<g>
</g>
<g>
</g>
<g>
</g>
</svg>
